<?xml version="1.0" standalone="no"?>
<!DOCTYPE svg PUBLIC "-//W3C//DTD SVG 1.1//EN" "http://www.w3.org/Graphics/SVG/1.1/DTD/svg11.dtd" >
<svg xmlns="http://www.w3.org/2000/svg">
<metadata></metadata>
<defs>
<font id="tempelhofboldregular" horiz-adv-x="1353" >
<font-face units-per-em="2048" ascent="1638" descent="-410" />
<missing-glyph horiz-adv-x="353" />
<glyph horiz-adv-x="2048" />
<glyph horiz-adv-x="2048" />
<glyph unicode="&#xd;" horiz-adv-x="353" />
<glyph unicode=" "  horiz-adv-x="353" />
<glyph unicode="&#x09;" horiz-adv-x="353" />
<glyph unicode="&#xa0;" horiz-adv-x="353" />
<glyph unicode="!" horiz-adv-x="561" d="M139 91q0 53 38 87.5t91 34.5q55 0 93 -34.5t38 -87.5q0 -55 -38 -88.5t-93 -33.5q-53 0 -91 34.5t-38 87.5zM144 872v612h252v-612q0 -135 -44 -505h-164q-44 332 -44 505z" />
<glyph unicode="&#x22;" horiz-adv-x="694" d="M78 1420q0 44 31.5 75t74.5 31q42 0 72.5 -31t30.5 -75q0 -17 -4 -33l-80 -264h-39l-82 264q-4 21 -4 33zM389 1420q0 44 32.5 75t74.5 31q44 0 75 -31t31 -75q0 -11 -7 -33l-80 -264h-40l-81 264q-4 21 -5 33z" />
<glyph unicode="#" horiz-adv-x="1264" d="M110 487v201h274l34 141h-308v199h354l80 348h80l-82 -348h290l80 348h82l-82 -346h227v-201h-274l-33 -141h307v-201h-354l-78 -333h-78l76 333h-289l-76 -333h-79l77 333h-228zM462 688h290l33 141h-289z" />
<glyph unicode="$" horiz-adv-x="1154" d="M95 298l239 47q27 -175 215 -174h10v481q-46 20 -141 58q-301 124 -300 389q0 188 127 301q122 103 314 109v112h78v-117q157 -13 261 -104t126 -245h-245q-25 128 -142 147v-426l100 -40q143 -57 227 -161q93 -113 93 -261q0 -186 -116 -305.5t-304 -135.5v-119l-78 -2 v119q-179 4 -298 78q-139 86 -166 249zM363 1104q0 -80 61 -131q40 -30 135 -66v400q-88 -5 -142 -60t-54 -143zM637 179q177 45 177 230q0 140 -177 212v-442z" />
<glyph unicode="%" horiz-adv-x="1881" d="M89 1115q0 168 96 268.5t264 100.5q169 0 264 -100.5t95 -268.5q0 -162 -99 -265t-260 -103q-162 0 -261 103.5t-99 264.5zM312 1115q0 -188 135 -188t135 188q0 190 -135 190t-135 -190zM732 0l210 1484h219l-207 -1484h-222zM1089 367q0 169 96 269.5t261 100.5 q166 0 262.5 -101.5t96.5 -268.5q0 -162 -98.5 -264.5t-258.5 -102.5q-162 0 -260.5 101.5t-98.5 265.5zM1311 367q0 -188 135 -188t135 188q0 190 -135 190t-135 -190z" />
<glyph unicode="&#x26;" horiz-adv-x="1490" d="M102 369q0 125 88 246q53 73 184 193q-190 194 -190 342t100 253.5t250 105.5q145 0 254 -104.5t109 -249.5q0 -102 -74 -199q-40 -55 -152 -158l351 -349q71 66 71 155q0 59 -51 133l170 101q78 -118 78 -236q0 -140 -131 -294q73 -82 115 -107q58 -31 155 -28v-204h-9 q-146 0 -219 33.5t-177 143.5q-192 -177 -484 -177q-179 0 -306 111q-132 114 -132 289zM321 374q0 -93 68.5 -151.5t163.5 -58.5q201 -1 334 125l-370 376q-93 -84 -128 -127q-68 -84 -68 -164zM394 1150q0 -95 137 -219q91 86 100 97q57 67 57 124q0 60 -48.5 107.5 t-105.5 47.5q-62 0 -101 -47.5t-39 -109.5z" />
<glyph unicode="'" horiz-adv-x="388" d="M78 1420q0 44 31.5 75t74.5 31q42 0 72.5 -31t30.5 -75q0 -17 -4 -33l-80 -264h-39l-82 264q-4 21 -4 33z" />
<glyph unicode="(" horiz-adv-x="745" d="M154 730q0 342 72 515q95 230 365 354l82 -135q-203 -101 -262 -314q-33 -120 -33 -422q0 -306 31 -422q61 -215 264 -317l-82 -135q-270 124 -365 359q-72 175 -72 517z" />
<glyph unicode=")" horiz-adv-x="740" d="M89 -11q203 102 261 317q31 114 30 422q0 306 -30 422q-57 213 -261 314l79 135q273 -124 368 -354q70 -173 70 -515t-70 -517q-98 -235 -368 -359z" />
<glyph unicode="*" horiz-adv-x="614" d="M44 1237q0 57 53 57q15 0 122 -17l-93 68q-19 15 -20 40q0 59 58 59q27 0 41 -19l69 -93q-17 112 -17 122q0 53 57 53q58 0 58 -53q0 -25 -7 -63q-9 -46 -11 -59l68 93q15 19 40 19q57 0 57 -57q0 -29 -17 -42l-93 -68q106 17 119 17q22 0 39 -18t17 -39q0 -58 -53 -58 q-24 0 -62 7q-47 8 -60 11l93 -69q17 -13 17 -39q0 -60 -57 -61q-25 0 -40 21l-68 93q2 -13 11 -61q7 -38 7 -59q0 -22 -18 -38.5t-40 -16.5q-57 0 -57 53q0 15 17 122l-69 -93q-13 -18 -41 -19q-57 0 -58 59q0 24 20 39l93 69q-15 -3 -62 -11q-38 -7 -60 -7q-53 0 -53 58z " />
<glyph unicode="+" horiz-adv-x="888" d="M93 652v209h243v289h208v-289h245v-209h-245v-289h-208v289h-243z" />
<glyph unicode="," horiz-adv-x="403" d="M66 91q0 53 37.5 87.5t90.5 34.5q72 0 116 -61q38 -54 38 -127q0 -89 -62 -163.5t-151 -102.5l-29 77q110 53 111 109q0 25 -18 24q-55 0 -94 33.5t-39 88.5z" />
<glyph unicode="-" horiz-adv-x="866" d="M93 657v202h703v-200z" />
<glyph unicode="." horiz-adv-x="382" d="M66 91q0 53 37.5 87.5t90.5 34.5q55 0 93 -34.5t38 -87.5q0 -55 -38 -88.5t-93 -33.5q-53 0 -90.5 34.5t-37.5 87.5z" />
<glyph unicode="/" horiz-adv-x="633" d="M97 0l211 1484h220l-212 -1484h-219z" />
<glyph unicode="0" horiz-adv-x="1180" d="M110 401v674q0 190 145 314q137 118 329 118q195 0 332 -118q143 -124 143 -314v-674q0 -190 -140 -311t-335 -121q-194 0 -329 117q-144 122 -145 315zM348 389q0 -95 70.5 -158t165.5 -63q97 0 169 62t72 157v702q0 95 -72 156.5t-169 61.5q-95 0 -165.5 -61.5 t-70.5 -156.5v-700z" />
<glyph unicode="1" horiz-adv-x="751" d="M144 0v124l135 17v1201l-135 19v123h371v-1340l137 -20v-124h-508z" />
<glyph unicode="2" horiz-adv-x="1118" d="M99 1155q22 172 150 265q118 87 297 87q195 0 315 -95q126 -106 125 -297q0 -180 -127 -321q-36 -38 -275 -228q-75 -59 -109 -99q-78 -93 -97 -256h608v-211h-855v36q0 466 265 669l206 158q150 114 150 249q0 195 -203 195q-173 0 -204 -152h-246z" />
<glyph unicode="3" horiz-adv-x="1176" d="M89 298l238 44q11 -82 70 -126.5t143 -44.5q270 0 270 293q0 108 -65.5 172.5t-174.5 64.5h-186v200h207q78 0 124 79q42 68 41 151q0 177 -201 176q-173 0 -203 -152h-246q25 172 151 265q118 87 298 87q184 0 301 -87q131 -97 130 -276q0 -93 -49 -186 q-52 -102 -135 -137q113 -40 177.5 -138.5t64.5 -220.5q0 -230 -136 -361.5t-366 -131.5q-173 0 -293 80q-135 88 -160 249z" />
<glyph unicode="4" horiz-adv-x="1242" d="M99 342v211l319 931h245l-256 -752q-35 -101 -84 -179h392l22 405h192l22 -405h226v-211h-226l-22 -342h-214v342h-616z" />
<glyph unicode="5" horiz-adv-x="1180" d="M110 298l240 44q11 -82 69 -126.5t143 -44.5q267 0 267 298q0 112 -63 173t-175 61q-95 0 -169 -55h-236v834h789v-201h-553v-441q82 60 211 61q186 0 306 -124.5t120 -309.5q0 -233 -130.5 -365.5t-360.5 -132.5q-175 0 -296 77q-135 89 -162 252z" />
<glyph unicode="6" horiz-adv-x="1203" d="M133 401v674q0 190 143 314q138 118 332 118q179 0 297 -87q129 -93 150 -265h-245q-27 152 -204 152q-95 0 -166 -61.5t-71 -156.5v-293q115 104 285 105q186 0 306.5 -124.5t120.5 -309.5q0 -230 -135.5 -364t-367.5 -134q-192 0 -318.5 119.5t-126.5 312.5zM367 403 q0 -100 57.5 -166t155.5 -66q271 0 271 298q0 112 -62.5 173t-176.5 61q-117 0 -245 -104v-196z" />
<glyph unicode="7" horiz-adv-x="999" d="M66 1272v212h823v-210q0 -124 -81 -286q-13 -27 -154 -258q-110 -184 -155 -349.5t-45 -380.5h-235q0 464 235 847q63 101 128 204q74 128 75 221h-591z" />
<glyph unicode="8" horiz-adv-x="1169" d="M110 382q0 272 274 410q-240 122 -240 358q0 169 139 268q124 89 301 89t301 -91q137 -99 137 -270q0 -232 -239 -354q276 -138 276 -405q0 -186 -145 -305q-137 -112 -330 -113q-190 0 -327 111q-146 118 -147 302zM336 399q0 -100 74.5 -165.5t173.5 -65.5 q100 0 175 64.5t75 161.5q0 197 -250 285q-247 -90 -248 -280zM365 1128q0 -140 219 -225q216 87 216 225q0 90 -66 137q-57 42 -150 42q-219 0 -219 -179z" />
<glyph unicode="9" horiz-adv-x="1186" d="M110 1072q0 201 145 321q135 113 338 114q192 0 329 -119.5t137 -310.5v-678q0 -188 -138 -309t-330 -121q-175 0 -295 80q-135 86 -159 249l237 44q13 -82 71.5 -128t143.5 -46q97 0 166.5 67.5t69.5 165.5v346q-101 -86 -250 -86q-195 0 -326 107q-139 114 -139 304z M350 1068q0 -104 70 -159q64 -48 171 -48q110 -1 234 79v132q0 98 -68.5 166.5t-163.5 68.5q-102 0 -172.5 -68.5t-70.5 -170.5z" />
<glyph unicode=":" horiz-adv-x="433" d="M93 91q0 53 37.5 87.5t90.5 34.5q55 0 93 -34.5t38 -87.5q0 -55 -38 -88.5t-93 -33.5q-53 0 -90.5 34.5t-37.5 87.5zM93 745q0 53 37.5 87.5t90.5 34.5q55 0 93 -34.5t38 -87.5q0 -55 -38 -88t-93 -33q-53 0 -90.5 34t-37.5 87z" />
<glyph unicode=";" horiz-adv-x="454" d="M93 91q0 53 37.5 87.5t90.5 34.5q72 0 115 -61q38 -54 38 -127q0 -89 -62.5 -163.5t-149.5 -102.5l-29 77q110 53 110 109q0 25 -17 24q-55 0 -94 33.5t-39 88.5zM93 745q0 53 37.5 87.5t90.5 34.5q55 0 93 -34.5t38 -87.5q0 -55 -36.5 -88t-91.5 -33q-56 0 -93.5 34 t-37.5 87z" />
<glyph unicode="&#x3c;" horiz-adv-x="791" d="M89 756l430 474l138 -122l-270 -352l270 -353l-138 -120z" />
<glyph unicode="=" horiz-adv-x="868" d="M93 487v201h703v-201h-703zM93 829v201h703v-201h-703z" />
<glyph unicode="&#x3e;" horiz-adv-x="793" d="M154 403l270 353l-270 352l138 122l432 -474l-432 -473z" />
<glyph unicode="?" horiz-adv-x="926" d="M49 1155q46 352 426 352q171 0 281 -76q126 -85 126 -249q0 -133 -121 -240q-24 -18 -230 -153q-122 -79 -122 -145q0 -87 190 -80v-199q-405 -4 -405 279q0 135 118 236q11 11 216 148q118 80 118 154q0 126 -171 125q-159 0 -181 -152h-245zM352 91q0 53 37.5 87.5 t90.5 34.5q55 0 92.5 -34.5t37.5 -87.5q0 -55 -37 -88.5t-93 -33.5q-53 0 -90.5 34.5t-37.5 87.5z" />
<glyph unicode="@" horiz-adv-x="1839" d="M99 686q0 340 241.5 580.5t581.5 240.5q341 0 581 -239.5t240 -579.5q0 -215 -101 -376q-120 -188 -321 -188q-211 0 -281 182q-15 35 -18 76q-15 -44 -75 -70q-51 -21 -105 -23q-105 0 -178 62.5t-73 167.5q0 129 88 205q80 65 214 78q40 3 118 8q11 78 11 95 q0 57 -82 57q-104 0 -108 -77h-184q31 245 287 246q110 0 188 -50q91 -57 91 -163q0 -19 -2 -29l-47 -340q-2 -15 -2 -53q0 -186 144 -186q122 0 179 135q42 99 42 239q0 249 -178 427.5t-428 178.5q-249 0 -426 -177.5t-177 -426.5q0 -199 122 -354q112 -144 304 -220 l-82 -207q-255 93 -409.5 303t-154.5 478zM777 526q0 -57 68 -57q92 0 128 55l21 135q-125 -17 -143 -24q-76 -29 -74 -109z" />
<glyph unicode="A" horiz-adv-x="1342" d="M33 0l524 1484h235l527 -1484h-255l-146 416h-487l-139 -416h-259zM502 626h343l-77 228q-27 80 -95 378q-27 -128 -93 -378z" />
<glyph unicode="B" horiz-adv-x="1205" d="M154 0v1484h483q192 0 305 -102.5t113 -292.5q0 -89 -52 -183t-127 -136q95 -38 159 -141t64 -209q0 -175 -116 -297.5t-289 -122.5h-540zM391 211h295q82 0 133 70q46 61 46 148q0 86 -57.5 155.5t-140.5 69.5h-276v-443zM391 867h217q95 0 155 57.5t60 152.5 q0 196 -194 197h-238v-407z" />
<glyph unicode="C" horiz-adv-x="1222" d="M110 745q0 357 101 532q132 230 462 230q179 0 296 -87q128 -93 150 -265h-243q-31 152 -203 152q-190 0 -257 -140q-47 -95 -47 -306v-224q0 -208 38 -308q60 -161 230 -161h2q177 0 201 168h244q-21 -169 -141 -268t-293 -99q-327 0 -451 242q-89 172 -89 534z" />
<glyph unicode="D" horiz-adv-x="1277" d="M154 0v1484h448q572 0 572 -703q0 -781 -615 -781h-405zM391 211h173q213 0 295 167q59 120 59 356q0 246 -44 357q-72 181 -277 181h-206v-1061z" />
<glyph unicode="E" horiz-adv-x="1110" d="M154 0v1484h846v-212h-611v-405h467v-213h-467v-443h611v-211h-846z" />
<glyph unicode="F" horiz-adv-x="1054" d="M154 0v1484h846v-212h-611v-405h467v-213h-465v-654h-237z" />
<glyph unicode="G" horiz-adv-x="1253" d="M110 745q0 352 103 532q133 230 460 230q181 0 298 -87q126 -93 148 -265h-243q-31 152 -203 152q-188 0 -259 -135q-47 -91 -47 -284v-16l2 -235q3 -210 40 -310q62 -159 237 -159q128 0 226 62v420l-300 17v160h536v-827h-126l-22 135q-29 -80 -124 -126 q-84 -40 -177 -40q-327 0 -456 242q-93 175 -93 534z" />
<glyph unicode="H" horiz-adv-x="1340" d="M154 0v1484h237v-617h556v617h237v-1484h-237v654h-556v-654h-237z" />
<glyph unicode="I" horiz-adv-x="563" d="M154 0v1484h237v-1484h-237z" />
<glyph unicode="J" horiz-adv-x="713" d="M11 -4q15 -2 44 -2q255 0 255 232v1258h236v-1252q0 -228 -126 -344t-356 -116h-26q-17 2 -27 2v222z" />
<glyph unicode="K" horiz-adv-x="1256" d="M154 0v1484h235v-688q64 104 206 301l325 387h308l-569 -665l557 -819h-289l-423 644l-113 -131v-513h-237z" />
<glyph unicode="L" horiz-adv-x="996" d="M154 0v1484h235v-1273h607v-211h-842z" />
<glyph unicode="M" horiz-adv-x="1735" d="M68 0l277 1484h297l166 -684q33 -135 81 -528q27 203 35 266q22 150 49 262l166 684h294l277 -1484h-252l-139 800q-18 102 -49 447q-17 -158 -65 -447l-190 -800h-249l-194 800q-21 89 -63 447q-11 -150 -47 -447l-139 -800h-255z" />
<glyph unicode="N" horiz-adv-x="1372" d="M154 0v1484h228l644 -1093q-42 232 -42 297v796h234v-1484h-220l-646 1091q40 -219 39 -293v-798h-237z" />
<glyph unicode="O" d="M110 745q0 348 103 527q133 235 452 235q325 0 458 -239q101 -182 101 -536q0 -344 -105 -527q-133 -236 -452 -236q-322 0 -456 244q-100 181 -101 532zM369 631q0 -205 49 -310q68 -153 249 -153q182 0 251 155q46 106 46 314v157q0 230 -40 337q-65 176 -255 176h-2 q-190 0 -256 -176q-42 -108 -42 -337v-163z" />
<glyph unicode="P" horiz-adv-x="1134" d="M154 0v1484h465q205 0 335 -99q139 -112 139 -313q0 -219 -169 -327q-141 -91 -371 -91h-162v-654h-237zM391 867h162q135 0 199 34q93 43 93 165q0 203 -226 206l-228 2v-407z" />
<glyph unicode="Q" d="M110 745q0 348 103 527q133 235 452 235q325 0 458 -239q101 -182 101 -536q0 -595 -331 -723q34 -22 65 -111q25 -65 97 -66q29 0 78 14l46 -202q-71 -22 -130 -22q-228 0 -297 177q-20 57 -42 112q-27 47 -100 60q-122 21 -165 35q-78 30 -144 89q-190 177 -191 650z M369 631q0 -205 49 -310q68 -153 249 -153q182 0 251 155q46 106 46 314v157q0 230 -40 337q-65 176 -255 176h-2q-190 0 -256 -176q-42 -108 -42 -337v-163z" />
<glyph unicode="R" horiz-adv-x="1235" d="M154 0v1484h465q205 0 335 -99q139 -111 139 -313q0 -318 -337 -397l377 -675h-282l-320 654h-140v-654h-237zM391 867h162q135 0 199 34q93 43 93 165q0 203 -226 206l-228 2v-407z" />
<glyph unicode="S" horiz-adv-x="1154" d="M110 298l240 44q11 -82 69 -128t143 -46q117 0 192 62t75 179q0 137 -181 212q-19 9 -217 89q-298 122 -298 389q0 193 135 303q124 104 321 105q181 0 298 -87q128 -93 151 -265h-244q-32 152 -203 152q-95 0 -154 -55t-59 -148q0 -120 160 -184q71 -29 213 -85 t229 -160q92 -116 92 -261q0 -209 -141 -330q-133 -114 -342 -115q-182 0 -308 75q-144 87 -171 254z" />
<glyph unicode="T" horiz-adv-x="1068" d="M44 1272v212h1026v-212h-397v-1272h-235v1272h-394z" />
<glyph unicode="U" horiz-adv-x="1317" d="M154 399v1085h235v-1102q0 -108 86 -165q74 -49 188 -49q115 0 188 49q86 55 86 165v1102h235v-1085q0 -215 -150 -328q-137 -101 -359 -102q-221 0 -355 102q-152 113 -154 328z" />
<glyph unicode="V" horiz-adv-x="1334" d="M44 1484h259l221 -668q19 -57 65 -230l90 -352q34 135 98 383q17 66 55 199l221 668h258l-501 -1484h-264z" />
<glyph unicode="W" horiz-adv-x="1720" d="M55 1484h253l139 -800q9 -53 20 -162q19 -195 27 -309q17 168 37 304q15 110 28 167l191 800h250l192 -800q7 -27 26 -171q22 -152 38 -300q9 159 46 471l140 800h253l-275 -1484h-297l-165 684q-31 130 -82 526q-27 -209 -36 -263q-21 -150 -48 -263l-166 -684h-294z " />
<glyph unicode="X" horiz-adv-x="1222" d="M40 0l445 743l-445 741h272l190 -319q38 -61 119 -236q71 156 118 236l190 319h270l-443 -741l443 -743h-270l-188 314q-38 62 -120 241q-38 -82 -121 -241l-190 -314h-270z" />
<glyph unicode="Y" horiz-adv-x="1306" d="M55 1484h270l190 -385q66 -132 152 -365q87 233 154 365l190 385h270l-496 -967v-517h-236v517z" />
<glyph unicode="Z" horiz-adv-x="1200" d="M99 0v211l490 718q114 170 274 343h-764v212h1011v-210l-498 -730q-99 -148 -267 -333h765v-211h-1011z" />
<glyph unicode="[" horiz-adv-x="720" d="M177 -126v1736h440v-156l-206 -23v-1378l206 -22v-157h-440z" />
<glyph unicode="\" horiz-adv-x="648" d="M112 1484h222l208 -1484h-219z" />
<glyph unicode="]" horiz-adv-x="709" d="M110 31l204 22v1378l-204 23v156h441v-1736h-441v157z" />
<glyph unicode="^" horiz-adv-x="829" d="M93 396l331 615l332 -615l-81 -51l-251 334l-247 -334z" />
<glyph unicode="_" horiz-adv-x="901" d="M44 -31h834v-210h-834v210z" />
<glyph unicode="`" horiz-adv-x="346" d="M55 1437q0 45 32.5 76t74.5 31t73 -30t35 -72l31 -256l-37 -19l-178 194q-31 33 -31 76z" />
<glyph unicode="a" horiz-adv-x="1038" d="M99 287q0 162 118 253q104 82 272 95l174 13v84q0 89 -30.5 124t-119.5 35q-139 0 -157 -119h-223q42 321 378 321q389 0 390 -359v-734h-127l-22 135q-29 -80 -123 -126q-85 -40 -178 -40q-150 0 -248 84q-104 86 -104 234zM332 287q0 -53 36.5 -88t89.5 -35 q137 0 205 66v243l-156 -11q-175 -13 -175 -175z" />
<glyph unicode="b" horiz-adv-x="1142" d="M139 0v1484h237v-345q0 -63 -28 -212q25 84 114 128q76 38 173 38q205 0 314 -175q89 -146 89 -367q0 -338 -182 -494q-103 -88 -299 -88q-82 0 -161 44q-90 49 -109 122l-21 -135h-127zM374 230q101 -66 208 -66h1q204 0 204 393q0 150 -29 222q-46 108 -174 108 q-106 0 -210 -62v-595z" />
<glyph unicode="c" horiz-adv-x="1032" d="M110 531q0 268 98 404q113 157 372 158q332 0 378 -321h-226q-17 119 -150 119h-2q-152 0 -198 -114q-23 -59 -23 -220v-26q0 -130 10 -193q25 -120 95 -152q43 -20 104 -20q110 0 206 100l140 -158q-142 -139 -346 -139q-458 0 -458 562z" />
<glyph unicode="d" horiz-adv-x="1165" d="M110 531q0 260 80 393q102 169 346 169q90 0 158 -40q78 -44 102 -126q-27 170 -26 212v345h237v-1484h-127l-21 135q-32 -82 -127 -126q-82 -40 -177 -40q-252 0 -358 162q-87 133 -87 400zM359 491q0 -150 30 -219q44 -108 175 -108q109 0 206 66v595q-99 62 -208 62 q-146 0 -186 -137q-17 -60 -17 -259z" />
<glyph unicode="e" horiz-adv-x="1043" d="M110 536q0 557 428 557q398 0 397 -496v-135h-585v-6q0 -150 32 -211q46 -81 183 -81h3q108 0 206 102l135 -156q-145 -141 -341 -141q-146 0 -226 31q-101 42 -163 157q-68 126 -69 379zM352 633h355v51q0 101 -26 145q-35 62 -135 62q-122 0 -164 -75q-27 -48 -30 -183 z" />
<glyph unicode="f" horiz-adv-x="747" d="M93 885v174h115v133q0 150 84 233.5t234 83.5q71 0 215 -55l-74 -189q-101 35 -133 35q-100 0 -101 -116v-125h184v-154l-190 -20q17 -106 18 -159v-726h-240v885h-112z" />
<glyph unicode="g" horiz-adv-x="1144" d="M110 531q0 348 149 473q104 89 316 89q227 0 279 -166l22 132h131v-1223q0 -182 -142 -274q-119 -79 -307 -79h-5q-190 0 -350 139l137 157q106 -102 215 -102q217 0 217 144v137q0 48 17 141q-24 -61 -88 -95.5t-135 -34.5q-199 0 -298 82q-157 130 -158 480zM359 491 q0 -150 30 -219q44 -108 175 -108q109 0 206 66v595q-97 66 -208 66q-146 0 -186 -139q-17 -60 -17 -261z" />
<glyph unicode="h" horiz-adv-x="1105" d="M139 0v1484h237v-300q0 -76 -28 -257q21 71 112 122q84 44 166 44q355 0 354 -372v-721h-239v701q0 99 -26 139q-34 51 -133 51q-104 0 -206 -72v-819h-237z" />
<glyph unicode="i" horiz-adv-x="665" d="M78 905v154h429v-1059h-237v880zM232 1380q0 55 40 91t95 36t94 -36t39 -91t-39 -90.5t-94 -35.5t-95 35.5t-40 90.5z" />
<glyph unicode="j" horiz-adv-x="713" d="M78 -365l48 201q62 -11 79 -11q113 0 114 124v931l-193 25v154h429v-1116q0 -153 -95 -241.5t-249 -88.5q-45 0 -133 22zM283 1380q0 55 39 91t94 36t94 -36t39 -91t-39 -90.5t-94 -35.5t-94 35.5t-39 90.5z" />
<glyph unicode="k" horiz-adv-x="1102" d="M154 0v1484h235v-918q61 118 91 168q55 91 106 157l133 168h292l-374 -460l422 -599h-280l-281 427l-109 -129v-298h-235z" />
<glyph unicode="l" horiz-adv-x="519" d="M133 0v1484h236v-1484h-236z" />
<glyph unicode="m" horiz-adv-x="1695" d="M139 0v1059h131l22 -132q19 75 113 124q82 42 170 42q124 0 191 -25q90 -36 135 -131q31 72 121 116q80 40 166 40q197 0 289 -78q104 -84 104 -276v-739h-234v721q0 93 -34 131.5t-127 38.5q-106 0 -209 -72v-819h-234v721q0 93 -34 131.5t-127 38.5q-104 0 -206 -72 v-819h-237z" />
<glyph unicode="n" horiz-adv-x="1105" d="M139 0v1059h131l22 -132q77 166 303 166q199 0 290.5 -87.5t91.5 -284.5v-721h-234v730q0 89 -36 125t-125 36q-118 0 -206 -72v-819h-237z" />
<glyph unicode="o" horiz-adv-x="1140" d="M110 531q0 268 98 404q113 157 370 158q259 0 371 -158q98 -136 98 -404q0 -272 -96 -405q-110 -156 -371 -157q-261 0 -375 157q-95 135 -95 405zM359 494q0 -235 79 -293q50 -37 137 -37h5q91 0 141 37q77 58 77 293v88q0 150 -32 216q-49 93 -186 93t-186 -93 q-35 -66 -35 -216v-88z" />
<glyph unicode="p" horiz-adv-x="1112" d="M139 -380v1439h131l19 -132q74 166 328 166q217 0 327 -169q94 -143 94 -373q0 -338 -179 -492q-106 -90 -277 -90q-148 0 -221 120q15 -155 15 -199v-270h-237zM374 230q101 -66 208 -66h1q204 0 204 393q0 150 -29 224q-46 110 -174 110q-108 0 -210 -66v-595z" />
<glyph unicode="q" horiz-adv-x="1108" d="M99 531q0 562 465 562q223 0 278 -166l23 132h131v-1439h-238v19q0 298 16 450q-75 -120 -238 -120q-436 0 -437 562zM348 496q0 -155 28 -224q46 -108 179 -108h3q102 0 200 70v591q-104 66 -207 66q-146 0 -186 -137q-17 -62 -17 -258z" />
<glyph unicode="r" horiz-adv-x="848" d="M139 0v1059h131l22 -132q82 166 303 166q137 0 224 -42l-114 -195q-34 35 -118 35h-5q-118 0 -206 -72v-819h-237z" />
<glyph unicode="s" horiz-adv-x="968" d="M95 764q0 154 116 245q105 84 262 84q321 0 372 -274l-210 -38q-13 66 -60 93q-34 17 -106 17q-144 0 -144 -112q0 -82 86 -112q56 -15 169 -43q124 -35 203 -113q89 -90 89 -210q0 -175 -133 -261q-110 -71 -296 -71q-197 0 -344 141l138 156q92 -102 206 -102 q196 0 196 137q0 78 -126 115q-29 8 -84 23t-84 23q-250 76 -250 302z" />
<glyph unicode="t" horiz-adv-x="751" d="M110 885v174h114v336h221v-336h205v-152l-207 -22q15 -108 15 -191v-369q0 -95 15 -120q24 -37 109 -37h4q3 0 35 7l50 -188q-80 -17 -122 -18q-153 0 -239 81t-86 233v602h-114z" />
<glyph unicode="u" horiz-adv-x="1116" d="M139 338v721h235v-730q0 -88 36.5 -124.5t125.5 -36.5q117 0 207 73v818h234v-1059h-130l-22 133q-78 -166 -303 -166q-199 0 -291 87t-92 284z" />
<glyph unicode="v" horiz-adv-x="1154" d="M55 1059h255l110 -298q13 -37 62 -208q33 -118 98 -352l106 383q15 60 53 177l110 298h255l-410 -1059h-230z" />
<glyph unicode="w" horiz-adv-x="1711" d="M55 1059h251l93 -307q27 -87 127 -551q25 112 78 339q15 71 55 212l97 301h221l98 -301q13 -42 53 -214q27 -110 77 -337l74 335q15 73 53 216l95 307h247l-351 -1059h-244l-112 361q-13 40 -40 175q-25 117 -62 320q-19 -119 -60 -318q-11 -60 -39 -177l-114 -361h-243z " />
<glyph unicode="x" horiz-adv-x="1054" d="M19 0l372 531l-372 528h275q124 -185 234 -386q104 194 233 386h271l-371 -528l374 -531h-269q-95 135 -240 389q-122 -222 -237 -389h-270z" />
<glyph unicode="y" horiz-adv-x="1094" d="M22 1059h257l126 -335q66 -178 154 -494q85 319 151 494l126 335h259l-520 -1333q-95 -243 -473 -243v211q203 0 248 101q6 17 81 220z" />
<glyph unicode="z" horiz-adv-x="1011" d="M99 0v211q133 166 266 329q154 188 285 309h-528v210h781v-210l-339 -420q-84 -104 -210 -218h573v-211h-828z" />
<glyph unicode="{" horiz-adv-x="831" d="M133 624v235q122 24 122 114q0 62 -17 184t-17 181q0 133 92 212.5t227 79.5q106 0 201 -62l-66 -159q-62 38 -107 37q-120 0 -119 -114q0 -58 16.5 -174t16.5 -176q0 -89 -75 -157q-64 -59 -158 -82q93 -19 160 -82q74 -68 73 -157q0 -57 -16.5 -174t-16.5 -178 q0 -110 119 -110q49 0 107 36l66 -162q-91 -60 -201 -60q-135 0 -227 78.5t-92 211.5q0 61 17 183t17 182q0 93 -122 113z" />
<glyph unicode="|" horiz-adv-x="505" d="M139 -279v1763h235l2 -1763h-237z" />
<glyph unicode="}" horiz-adv-x="831" d="M110 -84l69 162q58 -36 104 -36q120 0 120 110q0 60 -17 177.5t-17 174.5q0 89 74 157q66 62 159 82q-93 22 -157 82q-76 68 -76 157q0 59 17 175.5t17 174.5q0 114 -120 114q-42 0 -104 -37l-69 159q95 62 202 62q135 0 227 -79.5t92 -212.5q0 -59 -17 -181t-17 -184 q0 -91 122 -114v-235q-122 -19 -122 -113q0 -60 17 -181.5t17 -183.5q0 -133 -92 -211.5t-227 -78.5q-110 0 -202 60z" />
<glyph unicode="~" horiz-adv-x="1072" d="M93 800q114 120 276 120q106 0 207 -65.5t152 -65.5q104 0 152 67l124 -151q-114 -120 -276 -119q-108 0 -210 65.5t-149 65.5q-103 0 -150 -69z" />
<glyph unicode="&#xa1;" horiz-adv-x="561" d="M139 1385q0 55 37 88.5t92 33.5t93 -35t38 -87q0 -53 -38 -86.5t-93 -33.5q-53 0 -91 33.5t-38 86.5zM141 0v606q0 171 45 502h164q44 -331 44 -502v-606h-253z" />
<glyph unicode="&#xa2;" horiz-adv-x="1032" d="M110 531q0 536 418 562v114h78v-114q308 -13 352 -321h-226q-17 110 -126 119v-723q84 13 168 98l140 -158q-131 -129 -308 -137v-119h-78v119q-418 19 -418 560zM359 582q0 -152 6 -204q15 -135 73 -177q42 -30 90 -33v721q-108 -15 -146 -112q-25 -64 -23 -195z" />
<glyph unicode="&#xa3;" horiz-adv-x="970" d="M78 575v77h230l-7 76h-223v77h214l-37 374q-2 22 -3 37q0 129 88.5 211t218.5 82q129 0 249 -89l-74 -164q-84 44 -145 44q-55 0 -78 -13q-31 -17 -31 -69q0 -17 2 -26l40 -387h255v-77h-246l7 -76h239v-77h-231q7 -47 7 -95q0 -85 -34 -157q-39 -84 -108 -112h476v-211 h-805v208q243 60 243 269q0 32 -9 98h-238z" />
<glyph unicode="&#xa4;" horiz-adv-x="1338" d="M33 619v75h197v78h-197v77h199q13 314 127 470q135 188 433 188q181 0 299 -87q126 -93 148 -265h-243q-32 152 -204 152q-193 0 -261 -144q-44 -97 -44 -314h448l-21 -77h-425v-78h402l-22 -75h-380q0 -452 269 -451q157 0 198 146h243q-29 -168 -143 -256.5t-286 -88.5 q-289 0 -420 188q-106 154 -118 462h-199z" />
<glyph unicode="&#xa5;" horiz-adv-x="1306" d="M55 1484h270l190 -385q66 -132 152 -365q87 233 154 365l190 385h270l-496 -967v-57h272v-76h-272v-76h272v-78h-272v-230h-236v230h-270v78h270v76h-270v76h270v57z" />
<glyph unicode="&#xa6;" horiz-adv-x="488" d="M133 0v621h236v-621h-236zM133 863v621h236v-621h-236z" />
<glyph unicode="&#xa7;" horiz-adv-x="1144" d="M133 298l239 44q10 -82 70 -128t144 -46q157 0 157 121q0 89 -148 160l-215 104q-210 101 -209 292q0 110 68 212q-47 62 -47 131q0 159 122 243q106 76 272 76q180 0 296 -87q125 -93 146 -265h-243q-33 152 -205 152q-159 0 -160 -119q0 -86 150 -160l217 -104 q206 -101 207 -293q0 -108 -70 -213q43 -59 43 -137q0 -144 -111 -232q-103 -80 -252 -80q-180 0 -303 75q-141 89 -168 254zM363 865q0 -80 86 -122l243 -117q40 -19 104 -62q14 31 14 48q0 80 -86 122l-247 120q-57 29 -103 62q-11 -29 -11 -51z" />
<glyph unicode="&#xa8;" horiz-adv-x="897" d="M110 1380q0 55 39 91t94 36t94 -36t39 -91t-37.5 -90.5t-95.5 -35.5q-55 0 -94 35.5t-39 90.5zM531 1380q0 55 38.5 91t93.5 36t95 -36t40 -91t-38.5 -90.5t-96.5 -35.5q-55 0 -93.5 35.5t-38.5 90.5z" />
<glyph unicode="&#xa9;" horiz-adv-x="1589" d="M44 737q0 318 226 544t544 226q317 0 542 -226t225 -544q0 -317 -225 -542.5t-542 -225.5q-318 0 -544 225.5t-226 542.5zM245 737q0 -235 167.5 -400.5t401.5 -165.5q235 0 400.5 165.5t165.5 400.5q0 234 -165.5 401t-400.5 167q-234 0 -401.5 -166t-167.5 -402z M491 730q0 420 319 420q245 0 289 -238l-166 -32q-21 104 -121 104q-95 0 -118 -99q-8 -36 -8 -175q0 -122 8 -153q22 -82 108 -82q80 0 196 74l83 -140q-135 -99 -279 -99q-312 0 -311 420z" />
<glyph unicode="&#xaa;" horiz-adv-x="722" d="M93 542v201h555v-201h-555zM131 1028q0 95 70 151q64 47 164 55l84 7v61q0 69 -73 70q-84 0 -87 -80h-152q20 215 243 215q226 0 226 -205v-451h-93l-17 82q-53 -88 -160 -88q-87 0 -146 49.5t-59 133.5zM283 1032q0 -50 62 -50t104 38v103q-99 -8 -109 -11 q-57 -17 -57 -80z" />
<glyph unicode="&#xab;" horiz-adv-x="1136" d="M55 754l363 432l137 -116l-213 -316l213 -321l-137 -108zM536 754l361 432l135 -116l-211 -316l214 -321l-138 -108z" />
<glyph unicode="&#xac;" horiz-adv-x="1364" d="M93 652v211h1139v-567h-236v356h-903z" />
<glyph unicode="&#xad;" horiz-adv-x="866" d="M93 657v202h703v-200z" />
<glyph unicode="&#xae;" horiz-adv-x="1589" d="M44 737q0 318 226 544t544 226q319 0 543 -226t224 -544q0 -319 -225 -543.5t-544 -224.5q-318 0 -543 225.5t-225 542.5zM245 737q0 -235 167.5 -400.5t401.5 -165.5q235 0 400.5 165.5t165.5 400.5q0 234 -165.5 401t-400.5 167q-234 0 -401.5 -166t-167.5 -402z M584 316v828h252q120 0 195 -65.5t75 -183.5q0 -175 -164 -247l197 -332h-206l-167 313h-8v-313h-174zM758 787h89q84 1 84 114q0 84 -106 83h-67v-197z" />
<glyph unicode="&#xaf;" horiz-adv-x="563" d="M55 1287v157h467v-157h-467z" />
<glyph unicode="&#xb0;" horiz-adv-x="473" d="M44 1305q0 77 60 133.5t137 56.5q80 0 140 -55t60 -135t-59 -135t-141 -55q-80 0 -138.5 55.5t-58.5 134.5zM177 1305q0 -25 20 -43.5t44 -18.5q25 0 46 18.5t21 43.5q0 21 -21 40.5t-46 19.5t-44.5 -19t-19.5 -41z" />
<glyph unicode="&#xb1;" horiz-adv-x="1242" d="M133 654v213h599q49 0 97 -18q-61 42 -232 202l140 135l445 -428l-445 -426l-140 135q93 88 113 108q65 59 124 98q-53 -17 -102 -19h-599z" />
<glyph unicode="&#xb4;" horiz-adv-x="346" d="M55 1186l31 256q5 42 35.5 72t72.5 30q45 0 76 -31t31 -76q0 -44 -31 -76l-177 -194z" />
<glyph unicode="&#xb6;" horiz-adv-x="1397" d="M110 1179q0 127 89.5 216t216.5 89v-612q-127 0 -216.5 90.5t-89.5 216.5zM480 0v1484h365q198 0 309 -102.5t111 -300.5v-1081h-235v1081q0 192 -176 193h-139v-1274h-235z" />
<glyph unicode="&#xb7;" horiz-adv-x="530" d="M93 732q0 20 25 24q17 0 36 2q-19 2 -36 3q-25 5 -25 24q0 27 25 27q6 0 46 -14q-51 20 -52 38q0 27 25 27q11 0 47 -29q-36 35 -36 44q0 27 25 27q15 0 42 -46q-20 59 -21 48q0 25 25 24q20 0 33 -57v21q-3 13 -3 23q0 22 25 22t24 -24q0 2 -6 -44q4 17 11 37t24 20 q25 0 25 -24q0 4 -20 -46q24 44 42 44q27 0 27 -27q0 -7 -38 -44q36 29 46 29q25 0 24 -27q0 -11 -7.5 -17.5t-20.5 -11.5q-19 -9 -23 -9q47 13 47 14q21 0 22 -27q0 -25 -57 -25l-5 -2q62 1 62 -26t-22 -27q-7 0 -24.5 7t-22.5 7q51 -21 51 -38q0 -27 -26 -27q-4 0 -44 32 q36 -45 36 -47q0 -27 -27 -27q-9 0 -43 47q20 -40 21 -49q0 -25 -25 -24q-19 0 -33 60q4 -32 4 -47q0 -21 -26 -22q-22 0 -23 24q0 13 5 45q-5 -18 -11.5 -38t-23.5 -20q-25 0 -25 24q0 9 23 47q-31 -45 -44 -45q-25 0 -25 25q0 9 38 47q-36 -30 -49 -30q-25 0 -25 27 q0 16 19 23.5t35 14.5q-46 -13 -50 -14q-21 0 -21 27z" />
<glyph unicode="&#xb8;" horiz-adv-x="603" d="M133 -186l68 155h113l-46 -100q217 -69 217 -217q0 -95 -65.5 -144.5t-164.5 -49.5q-22 0 -34 2v124q102 0 102 76q0 73 -190 154z" />
<glyph unicode="&#xba;" horiz-adv-x="722" d="M93 542v201h555v-201h-555zM99 1172q0 334 270 335q273 -1 273 -337q0 -325 -273 -325q-270 0 -270 327zM270 1146q0 -159 102 -160q99 1 99 158v70q0 148 -99 149q-102 0 -102 -151v-66z" />
<glyph unicode="&#xbb;" horiz-adv-x="1138" d="M104 431l215 323l-213 316l135 116l363 -432l-363 -429zM584 431l212 323l-210 316l135 116l363 -432l-363 -429z" />
<glyph unicode="&#xbf;" horiz-adv-x="977" d="M78 296q0 131 121 238q25 19 230 152q122 80 122 146q0 82 -192 82v198q407 0 407 -280q0 -135 -118 -237q-11 -11 -219 -148q-118 -80 -117 -153q0 -124 173 -123q162 0 180 152h247q-49 -354 -427 -354q-171 0 -282 77q-126 87 -125 250zM350 1387q0 53 36 86.5 t91 33.5t92 -33.5t37 -86.5t-36 -87.5t-93 -34.5q-53 0 -90 34.5t-37 87.5z" />
<glyph unicode="&#xc0;" horiz-adv-x="1342" d="M33 0l524 1484h235l527 -1484h-255l-146 416h-487l-139 -416h-259zM454 1827q0 45 31.5 75.5t73.5 30.5q40 0 72 -29.5t36 -69.5l32 -257l-38 -17l-176 190q-31 33 -31 77zM502 626h343l-77 228q-27 80 -95 378q-27 -128 -93 -378z" />
<glyph unicode="&#xc1;" horiz-adv-x="1342" d="M33 0l524 1484h235l527 -1484h-255l-146 416h-487l-139 -416h-259zM502 626h343l-77 228q-27 80 -95 378q-27 -128 -93 -378zM659 1577l31 257q4 42 35 70.5t73 28.5q44 0 75.5 -30.5t31.5 -75.5q0 -44 -31 -77l-177 -190z" />
<glyph unicode="&#xc2;" horiz-adv-x="1342" d="M33 0l524 1484h235l527 -1484h-255l-146 416h-487l-139 -416h-259zM460 1593l155 315q17 38 60 38q42 0 59 -38l153 -315l-31 -21l-181 195l-184 -195zM502 626h343l-77 228q-27 80 -95 378q-27 -128 -93 -378z" />
<glyph unicode="&#xc3;" horiz-adv-x="1342" d="M33 0l524 1484h235l527 -1484h-255l-146 416h-487l-139 -416h-259zM394 1668q0 86 48.5 147t129.5 61q91 0 141.5 -65.5t73.5 -65.5q58 0 58 89h122q0 -87 -47 -144q-51 -64 -133 -65q-90 0 -141 65.5t-74 65.5q-57 0 -57 -88h-121zM502 626h343l-77 228q-27 80 -95 378 q-27 -128 -93 -378z" />
<glyph unicode="&#xc4;" horiz-adv-x="1342" d="M33 0l524 1484h235l527 -1484h-255l-146 416h-487l-139 -416h-259zM323 1773q0 55 39 91t94 36t94 -36t39 -91t-39 -89t-94 -34t-94 34t-39 89zM502 626h343l-77 228q-27 80 -95 378q-27 -128 -93 -378zM743 1773q0 55 39 91t94 36t94 -36t39 -91t-39 -89t-94 -34t-94 34 t-39 89z" />
<glyph unicode="&#xc5;" horiz-adv-x="1342" d="M33 0l524 1484h235l527 -1484h-255l-146 416h-487l-139 -416h-259zM502 626h343l-77 228q-27 80 -95 378q-27 -128 -93 -378zM513 1756q0 64 47.5 113t114.5 49q66 0 113.5 -48t47.5 -114t-47.5 -113.5t-113.5 -47.5t-114 47.5t-48 113.5zM619 1756q0 -19 16.5 -37 t39.5 -18q19 0 36 18t17 37q0 20 -17 36.5t-36 16.5q-22 0 -39 -16t-17 -37z" />
<glyph unicode="&#xc6;" horiz-adv-x="1841" d="M33 0l796 1484h903v-212h-609v-405h468v-213h-468v-443h609v-211h-843v416h-382l-215 -416h-259zM615 626h274v581q-49 -119 -155 -353z" />
<glyph unicode="&#xc7;" horiz-adv-x="1222" d="M110 745q0 357 101 532q132 230 462 230q181 0 298 -87q126 -93 148 -265h-243q-31 152 -203 152q-190 0 -257 -140q-47 -95 -47 -306v-217q0 -209 38 -310q62 -167 232 -166q157 0 197 146h243q-27 -156 -129.5 -246t-263.5 -99l-49 -100q215 -71 214 -217 q0 -95 -65 -144.5t-165 -49.5q-19 0 -30 2v124q99 -4 99 76q0 75 -188 154l70 157q-285 29 -388 274q-74 166 -74 500z" />
<glyph unicode="&#xc8;" horiz-adv-x="1108" d="M154 0v1484h846v-212h-611v-405h467v-213h-467v-443h611v-211h-846zM409 1827q0 45 32 75.5t74 30.5q40 0 72 -29.5t37 -69.5l30 -257l-37 -17l-176 190q-32 33 -32 77z" />
<glyph unicode="&#xc9;" horiz-adv-x="1108" d="M154 0v1484h846v-212h-611v-405h467v-213h-467v-443h611v-211h-846zM536 1577l28 257q4 40 36.5 69.5t74.5 29.5t73 -30.5t31 -75.5q0 -44 -32 -77l-175 -190z" />
<glyph unicode="&#xca;" horiz-adv-x="1108" d="M154 0v1484h846v-212h-611v-405h467v-213h-467v-443h611v-211h-846zM372 1593l154 315q17 38 60 38t60 -38l152 -315l-30 -21l-182 195l-183 -195z" />
<glyph unicode="&#xcb;" horiz-adv-x="1108" d="M154 0v1484h846v-212h-611v-405h467v-213h-467v-443h611v-211h-846zM257 1773q0 55 38.5 91t93.5 36t94 -36t39 -91t-38.5 -89t-94.5 -34q-55 0 -93.5 34t-38.5 89zM677 1773q0 55 38.5 91t94.5 36q55 0 93.5 -36t38.5 -91t-38.5 -89t-93.5 -34t-94 34t-39 89z" />
<glyph unicode="&#xcc;" horiz-adv-x="561" d="M55 1827q0 45 32.5 75.5t74.5 30.5q40 0 72 -29.5t36 -69.5l31 -257l-37 -17l-178 190q-31 33 -31 77zM154 0v1484h237v-1484h-237z" />
<glyph unicode="&#xcd;" horiz-adv-x="565" d="M154 0v1484h235v-1484h-235zM237 1577l31 257q4 40 36 69.5t72 29.5q44 0 75 -30.5t31 -75.5q0 -44 -31 -77l-175 -190z" />
<glyph unicode="&#xce;" horiz-adv-x="563" d="M57 1593l156 315q17 38 59 38t60 -38l153 -315l-31 -21l-182 195l-183 -195zM154 0v1484h235v-1484h-235z" />
<glyph unicode="&#xcf;" horiz-adv-x="563" d="M-71 1773q0 55 38.5 91t94.5 36q55 0 93.5 -36t38.5 -91t-38 -89t-94 -34t-94.5 34t-38.5 89zM154 0v1484h237v-1484h-237zM350 1773q0 55 38.5 91t93.5 36t94 -36t39 -91t-38.5 -89t-94.5 -34q-55 0 -93.5 34t-38.5 89z" />
<glyph unicode="&#xd0;" horiz-adv-x="1286" d="M17 717v77h140v690h447q573 0 573 -703q0 -781 -615 -781h-405v717h-140zM391 211h175q213 0 295 167q59 120 59 356q0 246 -44 357q-71 181 -277 181h-208v-478h268v-77h-268v-506z" />
<glyph unicode="&#xd1;" horiz-adv-x="1372" d="M154 0v1484h228l644 -1093q-42 232 -42 297v796h234v-1484h-220l-646 1091q40 -219 39 -293v-798h-237zM411 1668q0 86 48 147t132 61q90 0 140 -65.5t71 -65.5q62 0 59 89h121q0 -87 -47 -144q-48 -64 -133 -65q-68 0 -110 34q-17 15 -53 64q-24 33 -48 33 q-57 0 -57 -88h-123z" />
<glyph unicode="&#xd2;" d="M110 745q0 348 103 527q133 235 452 235q325 0 458 -239q101 -182 101 -536q0 -344 -105 -527q-133 -236 -452 -236q-322 0 -456 244q-100 181 -101 532zM369 631q0 -205 49 -310q68 -153 249 -153q182 0 251 155q46 106 46 314v157q0 230 -40 337q-65 177 -257 176 q-190 0 -256 -176q-42 -108 -42 -337v-163zM454 1827q0 45 31.5 75.5t73.5 30.5q43 0 73.5 -28.5t34.5 -70.5l32 -257l-38 -17l-176 190q-31 33 -31 77z" />
<glyph unicode="&#xd3;" d="M110 745q0 348 103 527q133 235 452 235q325 0 458 -239q101 -182 101 -536q0 -344 -105 -527q-133 -236 -452 -236q-322 0 -456 244q-100 181 -101 532zM369 631q0 -205 49 -310q68 -153 249 -153q182 0 251 155q46 106 46 314v157q0 230 -40 337q-65 177 -257 176 q-190 0 -256 -176q-42 -108 -42 -337v-163zM646 1577l29 257q4 40 36 69.5t74 29.5t73 -30.5t31 -75.5q0 -44 -30 -77l-175 -190z" />
<glyph unicode="&#xd4;" d="M110 745q0 348 103 527q133 235 452 235q325 0 458 -239q101 -182 101 -536q0 -344 -105 -527q-133 -236 -452 -236q-322 0 -456 244q-100 181 -101 532zM369 631q0 -205 49 -310q68 -153 249 -153q182 0 251 155q46 106 46 314v157q0 230 -40 337q-65 177 -257 176 q-190 0 -256 -176q-42 -108 -42 -337v-163zM454 1593l152 315q17 38 59 38t61 -38l152 -315l-29 -21l-184 195l-183 -195z" />
<glyph unicode="&#xd5;" d="M110 745q0 348 103 527q133 235 452 235q325 0 458 -239q101 -182 101 -536q0 -344 -105 -527q-133 -236 -452 -236q-322 0 -456 244q-100 181 -101 532zM369 631q0 -205 49 -310q68 -153 249 -153q182 0 251 155q46 106 46 314v157q0 230 -40 337q-65 177 -257 176 q-190 0 -256 -176q-42 -108 -42 -337v-163zM382 1668q0 86 47.5 147t132.5 61q90 0 140 -65.5t72 -65.5q58 0 58 89h122q0 -87 -47 -144q-48 -64 -133 -65q-68 0 -111 34q-17 15 -53 64q-25 33 -48 33q-62 0 -58 -88h-122z" />
<glyph unicode="&#xd6;" d="M110 745q0 348 103 527q133 235 452 235q325 0 458 -239q101 -182 101 -536q0 -344 -105 -527q-133 -236 -452 -236q-322 0 -456 244q-100 181 -101 532zM323 1773q0 55 39 91t94 36t94 -36t39 -91t-39 -89t-94 -34t-94 34t-39 89zM369 631q0 -205 49 -310 q68 -153 249 -153q182 0 251 155q46 106 46 314v157q0 230 -40 337q-65 177 -257 176q-190 0 -256 -176q-42 -108 -42 -337v-163zM743 1773q0 55 39 91t94 36t94 -36t39 -91t-39 -89t-94 -34t-94 34t-39 89z" />
<glyph unicode="&#xd7;" horiz-adv-x="844" d="M93 555l210 201l-210 202l128 123l212 -201l209 201l130 -123l-210 -202l210 -201l-130 -124l-209 202l-212 -202z" />
<glyph unicode="&#xd8;" d="M110 745q0 348 103 527q133 235 452 235q80 0 135 -12l40 173l76 -16l-40 -177q208 -68 289 -305q59 -163 59 -438q0 -344 -105 -527q-133 -236 -452 -236q-71 0 -136 14l-37 -169l-76 20l40 168q-209 74 -290 306q-57 164 -58 437zM369 629q0 -323 138 -416l247 1083 q-36 11 -87 11q-190 0 -256 -176q-42 -108 -42 -337v-165zM578 181q44 -13 89 -13q182 0 251 155q46 106 46 314q0 27 3 78v77q0 373 -140 471z" />
<glyph unicode="&#xd9;" horiz-adv-x="1317" d="M154 399v1085h235v-1102q0 -108 86 -165q74 -49 188 -49q115 0 188 49q86 55 86 165v1102h235v-1085q0 -215 -150 -328q-137 -101 -359 -102q-221 0 -355 102q-152 113 -154 328zM456 1827q0 45 31.5 75.5t74.5 30.5q40 0 71.5 -29.5t37.5 -69.5l30 -257l-38 -17 l-176 190q-31 33 -31 77z" />
<glyph unicode="&#xda;" horiz-adv-x="1317" d="M154 399v1085h235v-1102q0 -108 86 -165q74 -49 188 -49q115 0 188 49q86 55 86 165v1102h235v-1085q0 -215 -150 -328q-137 -101 -359 -102q-221 0 -355 102q-152 113 -154 328zM637 1577l30 257q5 40 37.5 69.5t72.5 29.5q44 0 74.5 -30.5t30.5 -75.5q0 -44 -31 -77 l-176 -190z" />
<glyph unicode="&#xdb;" horiz-adv-x="1317" d="M154 399v1085h235v-1102q0 -108 86 -165q74 -49 188 -49q115 0 188 49q86 55 86 165v1102h235v-1085q0 -215 -150 -328q-137 -101 -359 -102q-221 0 -355 102q-152 113 -154 328zM451 1593l155 315q17 38 59 38t61 -38l152 -315l-31 -21l-182 195l-183 -195z" />
<glyph unicode="&#xdc;" horiz-adv-x="1317" d="M154 399v1085h235v-1102q0 -108 86 -165q74 -49 188 -49q115 0 188 49q86 55 86 165v1102h235v-1085q0 -215 -150 -328q-137 -101 -359 -102q-221 0 -355 102q-152 113 -154 328zM321 1773q0 55 39 91t94 36t93.5 -36t38.5 -91t-37.5 -89t-94.5 -34q-55 0 -94 34t-39 89z M741 1773q0 55 39 91t94 36t95 -36t40 -91t-39 -89t-96 -34q-55 0 -94 34t-39 89z" />
<glyph unicode="&#xdd;" horiz-adv-x="1306" d="M55 1484h270l190 -385q66 -132 152 -365q87 233 154 365l190 385h270l-496 -967v-517h-236v517zM624 1577l28 257q5 40 37 69.5t75 29.5q42 0 72.5 -30.5t30.5 -75.5q0 -44 -31 -77l-175 -190z" />
<glyph unicode="&#xde;" horiz-adv-x="1118" d="M139 0v1345h237v-252h228q205 0 333 -99q140 -112 140 -313q0 -219 -168 -329q-143 -93 -371 -93h-162v-259h-237zM376 464h162q291 0 291 211q0 205 -225 205h-228v-416z" />
<glyph unicode="&#xdf;" horiz-adv-x="1211" d="M133 -378v1513q0 186 114 283q108 91 299 91q171 0 286 -69q137 -85 137 -243q0 -95 -60 -199q-29 -49 -113 -158q-59 -78 -59 -106q0 -33 114 -92q152 -80 215 -135q116 -102 116 -239q0 -152 -125 -232q-106 -66 -268 -67q-194 0 -342 141l137 156q93 -102 205 -102 q155 0 155 110q0 60 -108 125l-177 103q-152 91 -152 230q0 82 111.5 233.5t111.5 224.5q0 118 -177 117q-184 0 -184 -176v-1509h-236z" />
<glyph unicode="&#xe0;" horiz-adv-x="1038" d="M99 287q0 162 118 253q104 82 272 95l174 13v84q0 89 -30.5 124t-119.5 35q-139 0 -157 -119h-223q42 321 378 321q389 0 390 -359v-734h-127l-22 135q-29 -80 -123 -126q-85 -40 -178 -40q-150 0 -248 84q-104 86 -104 234zM332 287q0 -53 36.5 -88t89.5 -35 q137 0 205 66v243l-156 -11q-175 -13 -175 -175zM336 1437q0 45 31.5 76t73.5 31t73.5 -30t36.5 -72l29 -256l-38 -19l-175 194q-31 33 -31 76z" />
<glyph unicode="&#xe1;" horiz-adv-x="1038" d="M99 287q0 162 118 253q104 82 272 95l174 13v84q0 89 -30.5 124t-119.5 35q-139 0 -157 -119h-223q42 321 378 321q389 0 390 -359v-734h-127l-22 135q-29 -80 -123 -126q-85 -40 -178 -40q-150 0 -248 84q-104 86 -104 234zM332 287q0 -53 36.5 -88t89.5 -35 q137 0 205 66v243l-156 -11q-175 -13 -175 -175zM498 1186l30 256q4 42 35.5 72t73.5 30q44 0 75 -31t31 -76q0 -39 -33 -76l-174 -194z" />
<glyph unicode="&#xe2;" horiz-adv-x="1038" d="M99 287q0 162 118 253q104 82 272 95l174 13v84q0 89 -30.5 124t-119.5 35q-139 0 -157 -119h-223q42 321 378 321q389 0 390 -359v-734h-127l-22 135q-29 -80 -123 -126q-85 -40 -178 -40q-150 0 -248 84q-104 86 -104 234zM323 1182l152 315q17 38 61 38t61 -38 l153 -315l-31 -21l-183 194l-182 -194zM332 287q0 -53 36.5 -88t89.5 -35q137 0 205 66v243l-156 -11q-175 -13 -175 -175z" />
<glyph unicode="&#xe3;" horiz-adv-x="1038" d="M99 287q0 162 118 253q104 82 272 95l174 13v84q0 89 -30.5 124t-119.5 35q-139 0 -157 -119h-223q42 321 378 321q389 0 390 -359v-734h-127l-22 135q-29 -80 -123 -126q-85 -40 -178 -40q-150 0 -248 84q-104 86 -104 234zM249 1256q0 86 48 146t132 60q90 0 140 -65 t73 -65q61 0 57 88h122q0 -86 -47.5 -146t-131.5 -60q-69 0 -111 33q-15 13 -51 64q-25 34 -51 34q-57 0 -57 -89h-123zM332 287q0 -53 36.5 -88t89.5 -35q137 0 205 66v243l-156 -11q-175 -13 -175 -175z" />
<glyph unicode="&#xe4;" horiz-adv-x="1038" d="M99 287q0 162 118 253q104 82 272 95l174 13v84q0 89 -30.5 124t-119.5 35q-139 0 -157 -119h-223q42 321 378 321q389 0 390 -359v-734h-127l-22 135q-29 -80 -123 -126q-85 -40 -178 -40q-150 0 -248 84q-104 86 -104 234zM197 1380q0 55 38.5 91t93.5 36t94 -36 t39 -91t-39 -90.5t-94 -35.5t-93.5 35.5t-38.5 90.5zM332 287q0 -53 36.5 -88t89.5 -35q137 0 205 66v243l-156 -11q-175 -13 -175 -175zM617 1380q0 55 38.5 91t94.5 36q55 0 93.5 -36t38.5 -91t-38.5 -90.5t-93.5 -35.5q-56 0 -94.5 35.5t-38.5 90.5z" />
<glyph unicode="&#xe5;" horiz-adv-x="1038" d="M99 287q0 162 118 253q104 82 272 95l174 13v84q0 89 -30.5 124t-119.5 35q-139 0 -157 -119h-223q42 321 378 321q389 0 390 -359v-734h-127l-22 135q-29 -80 -123 -126q-85 -40 -178 -40q-150 0 -248 84q-104 86 -104 234zM332 287q0 -53 36.5 -88t89.5 -35 q137 0 205 66v243l-156 -11q-175 -13 -175 -175zM372 1372q0 63 48.5 112t113.5 49t112.5 -48t47.5 -113q0 -66 -47.5 -114t-112.5 -48q-66 0 -114 47.5t-48 114.5zM480 1372q0 -22 16.5 -38.5t37.5 -16.5q55 0 55 55q0 19 -17 36t-38 17q-20 0 -37 -17t-17 -36z" />
<glyph unicode="&#xe6;" horiz-adv-x="1649" d="M99 287q0 162 122 257q113 89 279 89h163v93q0 86 -21 121q-32 44 -118 44q-140 0 -170 -119h-221q19 157 125.5 239t269.5 82q224 0 312 -135q106 133 319 133q398 0 398 -494v-135h-595q0 -146 38 -213q49 -86 182 -85q103 0 218 102l137 -156q-166 -141 -355 -141 q-131 0 -207 27q-99 35 -159 133q-61 -98 -159 -133q-76 -27 -206 -27q-148 0 -250 86t-102 232zM332 287q0 -53 36.5 -88t89.5 -35q137 0 205 66v232h-146q-185 0 -185 -175zM964 633h365v51q0 101 -29 148q-35 59 -135 59q-122 0 -165 -72q-36 -58 -36 -186z" />
<glyph unicode="&#xe7;" horiz-adv-x="1032" d="M110 531q0 268 98 404q113 157 372 158q332 0 378 -321h-226q-21 120 -152 119q-152 0 -198 -114q-25 -64 -23 -246q0 -130 10 -193q25 -120 95 -152q43 -20 104 -20q110 0 206 100l140 -158q-133 -131 -321 -139l-47 -100q215 -71 215 -217q0 -95 -65 -144.5t-165 -49.5 q-19 0 -31 2v124q99 0 99 76q0 75 -188 154l74 159q-374 46 -375 558z" />
<glyph unicode="&#xe8;" horiz-adv-x="1043" d="M110 536q0 557 428 557q398 0 397 -496v-135h-585v-6q0 -150 32 -211q47 -82 186 -81q108 0 206 102l135 -156q-145 -141 -341 -141q-148 0 -226 33q-101 40 -163 155q-68 126 -69 379zM321 1437q0 45 30.5 76t72.5 31q43 0 73.5 -30t36.5 -72l30 -256l-38 -19l-174 194 q-31 33 -31 76zM352 633h355v51q0 101 -26 145q-35 62 -135 62q-122 0 -164 -75q-27 -48 -30 -183z" />
<glyph unicode="&#xe9;" horiz-adv-x="1043" d="M110 536q0 557 428 557q398 0 397 -496v-135h-585v-6q0 -150 32 -211q47 -82 186 -81q108 0 206 102l135 -156q-145 -141 -341 -141q-148 0 -226 33q-101 40 -163 155q-68 126 -69 379zM352 633h355v51q0 101 -26 145q-35 62 -135 62q-122 0 -164 -75q-27 -48 -30 -183z M498 1186l30 256q4 42 35.5 72t73.5 30q44 0 75 -31t31 -76q0 -39 -33 -76l-174 -194z" />
<glyph unicode="&#xea;" horiz-adv-x="1043" d="M110 536q0 557 428 557q398 0 397 -496v-135h-585v-6q0 -150 32 -211q47 -82 186 -81q108 0 206 102l135 -156q-145 -141 -341 -141q-148 0 -226 33q-101 40 -163 155q-68 126 -69 379zM336 1182l153 315q18 38 60 38q44 0 61 -38l154 -315l-32 -21l-183 194l-182 -194z M352 633h355v51q0 101 -26 145q-35 62 -135 62q-122 0 -164 -75q-27 -48 -30 -183z" />
<glyph unicode="&#xeb;" horiz-adv-x="1043" d="M110 536q0 557 428 557q398 0 397 -496v-135h-585v-6q0 -150 32 -211q47 -82 186 -81q108 0 206 102l135 -156q-145 -141 -341 -141q-148 0 -226 33q-101 40 -163 155q-68 126 -69 379zM221 1380q0 55 38.5 91t94.5 36q55 0 94 -36t39 -91t-38 -90.5t-95 -35.5 q-55 0 -94 35.5t-39 90.5zM352 633h355v51q0 101 -26 145q-35 62 -135 62q-122 0 -164 -75q-27 -48 -30 -183zM642 1380q0 55 38.5 91t93.5 36t95 -36t40 -91t-38.5 -90.5t-96.5 -35.5q-55 0 -93.5 35.5t-38.5 90.5z" />
<glyph unicode="&#xec;" horiz-adv-x="665" d="M78 905v154h429v-1059h-237v880zM135 1437q0 45 31 76t73 31t74 -30t37 -72l28 -256l-38 -19l-174 194q-31 33 -31 76z" />
<glyph unicode="&#xed;" horiz-adv-x="665" d="M78 905v154h429v-1059h-237v880zM255 1186l30 256q4 42 35.5 72t73.5 30q44 0 75 -31t31 -76q0 -39 -33 -76l-175 -194z" />
<glyph unicode="&#xee;" horiz-adv-x="665" d="M78 905v154h429v-1059h-237v880zM93 1182l152 315q17 38 61 38q42 0 59 -38l152 -315l-28 -21l-183 194l-184 -194z" />
<glyph unicode="&#xef;" horiz-adv-x="667" d="M-22 1380q0 55 38.5 91t93.5 36t95 -36t40 -91t-38.5 -90.5t-96.5 -35.5q-55 0 -93.5 35.5t-38.5 90.5zM78 905v154h429v-1059h-237v880zM399 1380q0 55 39 91t96 36q55 0 93 -36t38 -91t-38 -90.5t-93 -35.5q-56 0 -95.5 35.5t-39.5 90.5z" />
<glyph unicode="&#xf0;" horiz-adv-x="1142" d="M110 531q0 260 80 393q102 169 346 169q90 0 158 -40q78 -44 102 -126q-27 148 -26 190v153h-137v77h137v137h237v-137h167v-77h-167v-1270h-127l-21 135q-16 -73 -107 -122q-82 -44 -163 -44q-220 0 -321 82q-157 128 -158 480zM356 491q0 -150 31 -219 q46 -108 177 -108q109 0 206 66v595q-99 62 -208 62q-148 0 -188 -137q-18 -60 -18 -259z" />
<glyph unicode="&#xf1;" horiz-adv-x="1105" d="M139 0v1059h131l22 -132q77 166 303 166q199 0 290.5 -87.5t91.5 -284.5v-721h-234v730q0 89 -36 125t-125 36q-118 0 -206 -72v-819h-237zM336 1256q0 86 48.5 146t130.5 60q91 0 140.5 -65t74.5 -65q57 0 57 88h122q0 -86 -48.5 -146t-130.5 -60q-91 0 -141.5 65.5 t-73.5 65.5q-57 0 -57 -89h-122z" />
<glyph unicode="&#xf2;" horiz-adv-x="1140" d="M110 531q0 268 98 404q113 157 370 158q259 0 371 -158q98 -136 98 -404q0 -272 -96 -405q-110 -156 -371 -157q-261 0 -375 157q-95 135 -95 405zM359 494q0 -235 79 -293q51 -38 142 -37q91 0 141 37q77 58 77 293v88q0 150 -32 216q-49 93 -186 93t-186 -93 q-35 -66 -35 -216v-88zM365 1437q0 45 31 76t73 31t74 -30t37 -72l28 -256l-38 -19l-174 194q-31 33 -31 76z" />
<glyph unicode="&#xf3;" horiz-adv-x="1140" d="M110 531q0 268 98 404q113 157 370 158q259 0 371 -158q98 -136 98 -404q0 -272 -96 -405q-110 -156 -371 -157q-261 0 -375 157q-95 135 -95 405zM359 494q0 -235 79 -293q51 -38 142 -37q91 0 141 37q77 58 77 293v88q0 150 -32 216q-49 93 -186 93t-186 -93 q-35 -66 -35 -216v-88zM542 1186l30 256q5 42 36 72t73 30q45 0 75.5 -31t30.5 -76q0 -39 -33 -76l-174 -194z" />
<glyph unicode="&#xf4;" horiz-adv-x="1140" d="M110 531q0 268 98 404q113 157 370 158q259 0 371 -158q98 -136 98 -404q0 -272 -96 -405q-110 -156 -371 -157q-261 0 -375 157q-95 135 -95 405zM359 494q0 -235 79 -293q51 -38 142 -37q91 0 141 37q77 58 77 293v88q0 150 -32 216q-49 93 -186 93t-186 -93 q-35 -66 -35 -216v-88zM369 1182l155 315q13 38 60 38q42 0 60 -38l152 -315l-30 -21l-184 194l-181 -194z" />
<glyph unicode="&#xf5;" horiz-adv-x="1140" d="M110 531q0 268 98 404q113 157 370 158q259 0 371 -158q98 -136 98 -404q0 -272 -96 -405q-110 -156 -371 -157q-261 0 -375 157q-95 135 -95 405zM296 1256q0 86 49 146t130 60q91 0 140.5 -65t74.5 -65q57 0 57 88h122q0 -86 -48.5 -146t-130.5 -60q-91 0 -141.5 65.5 t-73.5 65.5q-57 0 -57 -89h-122zM359 494q0 -235 79 -293q51 -38 142 -37q91 0 141 37q77 58 77 293v88q0 150 -32 216q-49 93 -186 93t-186 -93q-35 -66 -35 -216v-88z" />
<glyph unicode="&#xf6;" horiz-adv-x="1140" d="M110 531q0 268 98 404q113 157 370 158q259 0 371 -158q98 -136 98 -404q0 -272 -96 -405q-110 -156 -371 -157q-261 0 -375 157q-95 135 -95 405zM234 1380q0 55 39 91t94 36t94 -36t39 -91t-39 -90.5t-94 -35.5t-94 35.5t-39 90.5zM359 494q0 -235 79 -293 q51 -38 142 -37q91 0 141 37q77 58 77 293v88q0 150 -32 216q-49 93 -186 93t-186 -93q-35 -66 -35 -216v-88zM654 1380q0 55 39 91t94 36t94 -36t39 -91t-39 -90.5t-94 -35.5t-94 35.5t-39 90.5z" />
<glyph unicode="&#xf7;" horiz-adv-x="866" d="M93 657v202h701v-202h-701zM314 411q0 53 37.5 88t93.5 35q55 0 91 -35t36 -88q0 -52 -36 -87t-91 -35t-93 35t-38 87zM314 1104q0 53 37.5 87.5t93.5 34.5q55 0 91 -34.5t36 -87.5t-36 -86.5t-91 -33.5t-93 33.5t-38 86.5z" />
<glyph unicode="&#xf8;" horiz-adv-x="1140" d="M110 531q0 268 98 404q113 157 370 158q57 0 85 -4l40 179l76 -18l-40 -175q308 -79 308 -544q0 -272 -96 -405q-110 -156 -371 -157q-31 0 -93 4l-38 -159l-73 20l35 155q-301 80 -301 542zM359 471q0 -232 97 -283l161 701q-13 2 -37 2q-137 0 -186 -93 q-35 -66 -35 -216v-111zM531 168q32 -4 49 -4q91 0 141 37q77 58 77 295v97q0 230 -106 279z" />
<glyph unicode="&#xf9;" horiz-adv-x="1116" d="M139 338v721h235v-730q0 -88 36.5 -124.5t125.5 -36.5q117 0 207 73v818h234v-1059h-130l-22 133q-78 -166 -303 -166q-199 0 -291 87t-92 284zM345 1437q0 45 32 76t74 31q43 0 73.5 -30t34.5 -72l32 -256l-38 -19l-177 194q-31 33 -31 76z" />
<glyph unicode="&#xfa;" horiz-adv-x="1116" d="M139 338v721h235v-730q0 -88 36.5 -124.5t125.5 -36.5q117 0 207 73v818h234v-1059h-130l-22 133q-78 -166 -303 -166q-199 0 -291 87t-92 284zM519 1186l32 256q4 42 35 72t73 30q44 0 75.5 -31t31.5 -76q0 -39 -34 -76l-175 -194z" />
<glyph unicode="&#xfb;" horiz-adv-x="1116" d="M139 338v721h235v-730q0 -88 36.5 -124.5t125.5 -36.5q117 0 207 73v818h234v-1059h-130l-22 133q-78 -166 -303 -166q-199 0 -291 87t-92 284zM345 1182l155 315q17 38 59 38q43 0 60 -38l153 -315l-31 -21l-182 194l-183 -194z" />
<glyph unicode="&#xfc;" horiz-adv-x="1116" d="M139 338v721h235v-730q0 -88 36.5 -124.5t125.5 -36.5q117 0 207 73v818h234v-1059h-130l-22 133q-78 -166 -303 -166q-199 0 -291 87t-92 284zM215 1380q0 55 38.5 91t94.5 36q55 0 94.5 -36t39.5 -91t-38.5 -90.5t-95.5 -35.5q-55 0 -94 35.5t-39 90.5zM635 1380 q0 55 38.5 91t94.5 36q55 0 95 -36t40 -91t-39 -90.5t-94 -35.5t-95 35.5t-40 90.5z" />
<glyph unicode="&#xfd;" horiz-adv-x="1149" d="M44 1059h262l125 -335q64 -173 147 -490q88 312 154 490l127 335h258l-520 -1333q-95 -243 -473 -243v211q203 0 248 101q6 17 82 220zM564 1186l31 256q4 42 35 72t73 30q44 0 75.5 -31t31.5 -76q0 -39 -33 -76l-175 -194z" />
<glyph unicode="&#xfe;" horiz-adv-x="1112" d="M139 -380v1725h237v-206q0 -63 -28 -212q25 84 112 128q76 38 173 38q208 0 316 -175q89 -146 89 -367q0 -338 -179 -492q-106 -90 -277 -90q-148 0 -221 120q15 -155 15 -199v-270h-237zM374 230q101 -66 208 -66q205 -1 205 393q0 150 -29 222q-46 108 -174 108 q-106 0 -210 -62v-595z" />
<glyph unicode="&#xff;" horiz-adv-x="1144" d="M44 1059h262l125 -335q64 -173 147 -490q88 312 154 490l127 335h258l-520 -1333q-95 -243 -473 -243v211q203 0 248 101q6 17 82 220zM239 1380q0 55 38.5 91t94.5 36q55 0 93.5 -36t38.5 -91t-37.5 -90.5t-94.5 -35.5q-56 0 -94.5 35.5t-38.5 90.5zM659 1380 q0 55 39 91t94 36t95 -36t40 -91t-39 -90.5t-96 -35.5q-55 0 -94 35.5t-39 90.5z" />
<glyph unicode="&#x152;" horiz-adv-x="1691" d="M110 745q0 345 103 518q133 221 452 221h934v-212h-542v-405h399v-213h-399v-443h542v-211h-934q-323 0 -452 224q-102 175 -103 521zM369 626q0 -164 30 -257t101 -128q59 -31 167 -30h154v1096h-154q-190 0 -256 -176q-42 -108 -42 -337v-168z" />
<glyph unicode="&#x153;" horiz-adv-x="1769" d="M110 531q0 268 98 404q113 157 370 158q255 0 369 -153q104 152 330 153q400 0 399 -496v-135h-585q0 -152 30 -213q44 -86 181 -85q104 0 220 102l135 -156q-162 -141 -355 -141q-128 0 -198 25q-97 33 -160 124q-115 -148 -364 -149q-261 0 -375 157q-95 135 -95 405z M359 494q0 -235 79 -293q51 -38 142 -37q91 0 141 37q77 58 77 293v88q0 150 -32 216q-49 93 -186 93t-186 -93q-35 -66 -35 -216v-88zM1093 633h355v51q0 101 -26 145q-37 62 -135 62q-124 0 -164 -75q-27 -48 -30 -183z" />
<glyph unicode="&#x178;" horiz-adv-x="1306" d="M55 1484h270l190 -385q66 -132 152 -365q87 233 154 365l190 385h270l-496 -967v-517h-236v517zM325 1773q0 55 39 91t94 36t94 -36t39 -91t-39 -89t-94 -34t-94 34t-39 89zM745 1773q0 55 39 91t94 36t94 -36t39 -91t-39 -89t-94 -34t-94 34t-39 89z" />
<glyph unicode="&#x2c6;" horiz-adv-x="530" d="M57 1182l154 315q17 38 59 38q44 0 62 -38l153 -315l-31 -21l-184 194l-181 -194z" />
<glyph unicode="&#x2dc;" horiz-adv-x="665" d="M55 1256q0 86 47.5 146t131.5 60q89 0 139.5 -65t75.5 -65q58 0 58 88h122q0 -86 -49 -146t-131 -60q-90 0 -141 65.5t-74 65.5q-57 0 -57 -89h-122z" />
<glyph unicode="&#x2000;" horiz-adv-x="973" />
<glyph unicode="&#x2001;" horiz-adv-x="1946" />
<glyph unicode="&#x2002;" horiz-adv-x="973" />
<glyph unicode="&#x2003;" horiz-adv-x="1946" />
<glyph unicode="&#x2004;" horiz-adv-x="648" />
<glyph unicode="&#x2005;" horiz-adv-x="486" />
<glyph unicode="&#x2006;" horiz-adv-x="324" />
<glyph unicode="&#x2007;" horiz-adv-x="324" />
<glyph unicode="&#x2008;" horiz-adv-x="243" />
<glyph unicode="&#x2009;" horiz-adv-x="389" />
<glyph unicode="&#x200a;" horiz-adv-x="108" />
<glyph unicode="&#x2010;" horiz-adv-x="866" d="M93 657v202h703v-200z" />
<glyph unicode="&#x2011;" horiz-adv-x="866" d="M93 657v202h703v-200z" />
<glyph unicode="&#x2012;" horiz-adv-x="866" d="M93 657v202h703v-200z" />
<glyph unicode="&#x2013;" horiz-adv-x="994" d="M93 657v202h831v-200z" />
<glyph unicode="&#x2014;" horiz-adv-x="1304" d="M93 657v202h1148v-200z" />
<glyph unicode="&#x2018;" horiz-adv-x="322" d="M33 1256q0 188 199 251l25 -72q-106 -40 -107 -110q0 -21 34 -23q53 0 88.5 -31.5t35.5 -82.5t-35.5 -83.5t-88.5 -32.5q-68 0 -111 61q-40 51 -40 123z" />
<glyph unicode="&#x2019;" horiz-adv-x="322" d="M22 1391q0 51 35.5 83.5t86.5 32.5q71 0 111.5 -55.5t40.5 -128.5q0 -91 -55 -157.5t-144 -93.5l-26 72q108 40 108 112q0 19 -35 21q-51 0 -86.5 31.5t-35.5 82.5z" />
<glyph unicode="&#x201a;" horiz-adv-x="327" d="M22 91q0 53 37.5 87.5t90.5 34.5q71 0 116 -61q37 -54 37 -127q0 -89 -62 -163.5t-150 -102.5l-29 77q110 53 111 109q0 25 -19 24q-55 0 -93.5 33.5t-38.5 88.5z" />
<glyph unicode="&#x201c;" horiz-adv-x="658" d="M33 1256q0 188 199 251l25 -72q-106 -40 -107 -110q0 -21 34 -23q53 0 88.5 -31.5t35.5 -82.5t-35.5 -83.5t-88.5 -32.5q-68 0 -111 61q-40 51 -40 123zM378 1256q0 188 200 251l24 -72q-106 -40 -106 -110q0 -21 32 -23q53 0 88.5 -31.5t35.5 -82.5t-36 -83.5t-88 -32.5 q-68 0 -110 61q-40 51 -40 123z" />
<glyph unicode="&#x201d;" horiz-adv-x="663" d="M22 1385q0 52 37.5 87t90.5 35q71 0 116 -61q37 -54 37 -127q0 -89 -62 -162t-150 -104l-29 78q110 53 111 108q0 25 -19 24q-55 0 -93.5 33t-38.5 89zM365 1385q0 52 38 87t93 35q71 0 110.5 -57.5t39.5 -130.5q0 -89 -61 -162t-150 -104l-30 78q112 53 112 108 q0 25 -19 24q-55 0 -94 33t-39 89z" />
<glyph unicode="&#x201e;" horiz-adv-x="663" d="M22 91q0 53 37.5 87.5t90.5 34.5q71 0 116 -61q37 -54 37 -127q0 -89 -62 -163.5t-150 -102.5l-29 77q110 53 111 109q0 25 -19 24q-55 0 -93.5 33.5t-38.5 88.5zM365 91q0 53 38 87.5t93 34.5q71 0 110.5 -57.5t39.5 -130.5q0 -89 -62 -163.5t-149 -102.5l-30 77 q112 53 112 109q0 25 -19 24q-55 0 -94 33.5t-39 88.5z" />
<glyph unicode="&#x2022;" horiz-adv-x="745" d="M133 721q0 30 33 35q27 0 53 2q-27 2 -53 3q-33 7 -33 35q0 36 33 36q-15 0 64 -18q-22 9 -46.5 21t-24.5 32q0 36 35 36q11 0 34 -16q15 -13 31 -24q-51 51 -51 61q0 36 35 36q15 0 58 -63q-27 62 -27 67q0 34 36 34q25 0 32.5 -28t11.5 -52q-4 40 -4 62q0 31 34 31 t34 -34q0 -19 -9 -59q7 25 15.5 52.5t33.5 27.5q36 0 36 -36q0 -8 -32 -65q47 60 60 61q35 0 35 -36q0 -15 -50 -59q52 38 65 38q34 0 34 -36q0 -19 -25.5 -31.5t-46.5 -21.5q59 17 65 17q32 0 32 -35q0 -36 -78 -36l-9 -2q27 -2 57 -6t30 -31q0 -35 -32 -35q13 0 -65 17 q21 -9 44 -17q27 -15 26 -36q0 -36 -34 -36q-8 0 -63 40q48 -48 48 -61q0 -36 -36 -36q-15 0 -57 62q27 -62 27 -66q0 -34 -33 -34q-25 0 -36 32q-6 24 -11 48q5 -40 5 -61q0 -32 -34 -32q-33 0 -32 34l6 59q-6 -25 -14 -48q-11 -32 -34 -32q-34 0 -34 36q0 13 29 64 q-2 -2 -14.5 -20.5t-23.5 -29t-24 -10.5q-34 0 -34 34q0 15 18 33t34 30q-46 -39 -65 -39q-35 0 -35 35q0 20 27 36q24 8 46 17q-51 -15 -66 -15q-31 0 -31 33z" />
<glyph unicode="&#x2026;" horiz-adv-x="1355" d="M66 91q0 53 37.5 87.5t90.5 34.5q55 0 93 -34.5t38 -87.5q0 -55 -38 -88.5t-93 -33.5q-53 0 -90.5 34.5t-37.5 87.5zM564 91q0 53 37.5 87.5t90.5 34.5q55 0 92 -34.5t37 -87.5q0 -55 -37 -88.5t-92 -33.5q-53 0 -90.5 34.5t-37.5 87.5zM1062 91q0 53 37.5 87.5 t92.5 34.5q53 0 91 -34.5t38 -87.5q0 -55 -37 -88.5t-92 -33.5t-92.5 34.5t-37.5 87.5z" />
<glyph unicode="&#x202f;" horiz-adv-x="389" />
<glyph unicode="&#x2039;" horiz-adv-x="667" d="M55 754l363 432l137 -116l-213 -316l213 -321l-137 -108z" />
<glyph unicode="&#x203a;" horiz-adv-x="669" d="M104 431l215 323l-213 316l135 116l363 -432l-363 -429z" />
<glyph unicode="&#x205f;" horiz-adv-x="486" />
<glyph unicode="&#x20ac;" horiz-adv-x="1338" d="M33 619v75h197v78h-197v77h199q13 314 127 470q135 188 433 188q181 0 299 -87q126 -93 148 -265h-243q-32 152 -204 152q-193 0 -261 -144q-44 -97 -44 -314h448l-21 -77h-425v-78h402l-22 -75h-380q0 -452 269 -451q157 0 198 146h243q-29 -168 -143 -256.5t-286 -88.5 q-289 0 -420 188q-106 154 -118 462h-199z" />
<glyph unicode="&#x2122;" horiz-adv-x="1311" d="M89 1336v148h495v-148h-164v-376h-163v376h-168zM637 960v524h165l120 -243l120 243h168v-524h-163v205l-63 -127h-123l-61 127v-205h-163z" />
<glyph unicode="&#xe000;" horiz-adv-x="1061" d="M0 0v1062h1062v-1062h-1062z" />
</font>
</defs>
</svg>
